<?xml version="1.0" encoding="UTF-8" standalone="no"?>
<!-- Created with Inkscape (http://www.inkscape.org/) -->

<svg
   width="79.288673mm"
   height="16.564789mm"
   viewBox="0 0 79.288673 16.564789"
   version="1.1"
   id="svg5"
   xml:space="preserve"
   xmlns:inkscape="http://www.inkscape.org/namespaces/inkscape"
   xmlns:sodipodi="http://sodipodi.sourceforge.net/DTD/sodipodi-0.dtd"
   xmlns="http://www.w3.org/2000/svg"
   xmlns:svg="http://www.w3.org/2000/svg"><sodipodi:namedview
     id="namedview7"
     pagecolor="#ffffff"
     bordercolor="#000000"
     borderopacity="0.25"
     inkscape:showpageshadow="2"
     inkscape:pageopacity="0.0"
     inkscape:pagecheckerboard="0"
     inkscape:deskcolor="#d1d1d1"
     inkscape:document-units="mm"
     showgrid="false" /><defs
     id="defs2"><rect
       x="320.05728"
       y="490.3569"
       width="295.53943"
       height="70.902954"
       id="rect236" /></defs><g
     inkscape:label="Capa 1"
     inkscape:groupmode="layer"
     id="layer1"
     transform="translate(-106.1079,-178.66349)"><text
       xml:space="preserve"
       transform="matrix(0.26458333,0,0,0.26458333,20.688312,46.026899)"
       id="text234"
       style="font-size:48px;font-family:'Franklin Gothic Demi';-inkscape-font-specification:'Franklin Gothic Demi';white-space:pre;shape-inside:url(#rect236);fill:#ffffff;fill-opacity:1;stroke-width:2.25638;stroke-linecap:round;stroke-linejoin:round"
       inkscape:export-filename="text234.svg"
       inkscape:export-xdpi="96"
       inkscape:export-ydpi="96"><tspan
         x="320.05664"
         y="534.11496"
         id="tspan5944"><tspan
           style="font-family:'Franklin Gothic Heavy';-inkscape-font-specification:'Franklin Gothic Heavy, ';fill:#c97400"
           id="tspan5936">K</tspan><tspan
           style="font-family:'Franklin Gothic Heavy';-inkscape-font-specification:'Franklin Gothic Heavy, '"
           id="tspan5938">ERNOB</tspan><tspan
           style="fill:#c97400"
           id="tspan5940">II</tspan><tspan
           style="font-family:'Franklin Gothic Heavy';-inkscape-font-specification:'Franklin Gothic Heavy, '"
           id="tspan5942"> </tspan></tspan></text><text
       xml:space="preserve"
       style="font-size:6.35px;font-family:'Franklin Gothic Demi';-inkscape-font-specification:'Franklin Gothic Demi';fill:#ffffff;fill-opacity:1;stroke-width:0.597001;stroke-linecap:round;stroke-linejoin:round"
       x="105.94667"
       y="194.44733"
       id="text292"><tspan
         sodipodi:role="line"
         id="tspan290"
         style="font-size:6.35px;fill:#ffffff;fill-opacity:1;stroke-width:0.597"
         x="105.94667"
         y="194.44733">GESTION COMERCIAL</tspan></text><g
       id="g1968"
       transform="matrix(0.53234312,0,0,0.53234312,102.49384,115.31741)"
       style="fill:#ffffff;fill-opacity:0.859425"><path
         style="fill:#ffffff;fill-opacity:0.859425;stroke-width:0.0608369"
         d="m 145.35762,131.97612 c -1.9e-4,-0.30114 0.0101,-0.43201 0.0229,-0.29081 0.0128,0.1412 0.0129,0.38759 3.6e-4,0.54753 -0.0126,0.15995 -0.023,0.0444 -0.0232,-0.25672 z m -9.58471,-2.63104 c 0.41181,-0.0105 1.06885,-0.0105 1.46009,6e-5 0.39124,0.0106 0.0543,0.0192 -0.74874,0.0192 -0.80305,-4e-5 -1.12315,-0.009 -0.71135,-0.0192 z m 4.24918,-1.8e-4 c -0.0156,-0.0251 0.45506,-0.0386 1.04585,-0.03 2.02821,0.0295 2.22775,0.0502 0.60625,0.0629 -0.89309,0.007 -1.63653,-0.008 -1.6521,-0.0329 z m 5.34126,-0.0317 c -0.0163,-0.0425 -0.0218,-0.70643 -0.0121,-1.47529 l 0.0176,-1.39793 0.014,1.44388 0.014,1.44388 1.62739,0.0172 1.62738,0.0172 -1.62929,0.0142 c -1.27254,0.0111 -1.6358,-0.003 -1.65899,-0.0632 z m 6.10548,0.0319 c 0.4118,-0.0105 1.06884,-0.0105 1.46008,6e-5 0.39124,0.0106 0.0543,0.0192 -0.74874,0.0192 -0.80305,-4e-5 -1.12315,-0.009 -0.71134,-0.0192 z m -6.1065,-6.46404 c 0,-0.81978 0.009,-1.15514 0.0191,-0.74525 0.0105,0.40989 0.0105,1.08061 0,1.4905 -0.0105,0.40989 -0.0191,0.0745 -0.0191,-0.74525 z"
         id="path1982" /><path
         style="fill:#ffffff;fill-opacity:0.859425;stroke-width:0.0608369"
         d="m 131.07918,143.45908 c -0.0155,-0.0251 3.64872,-0.0456 8.14274,-0.0456 4.49401,0 8.15825,0.0205 8.14274,0.0456 -0.0155,0.0251 -3.67975,0.0456 -8.14274,0.0456 -4.463,0 -8.12723,-0.0205 -8.14274,-0.0456 z"
         id="path1980" /><path
         style="fill:#ffffff;fill-opacity:0.859425;stroke-width:0.0608369"
         d="m 136.70199,147.30194 c 0.003,-0.0709 0.0173,-0.0853 0.0368,-0.0368 0.0176,0.0439 0.0154,0.0964 -0.005,0.1166 -0.0202,0.0202 -0.0346,-0.0157 -0.0319,-0.0798 z m -6.07888,-0.20786 c 0,-0.0836 0.0138,-0.11787 0.0307,-0.076 0.0169,0.0418 0.0169,0.11027 0,0.15209 -0.0169,0.0418 -0.0307,0.008 -0.0307,-0.0761 z m 20.01052,-14.87968 c 0.003,-0.0709 0.0173,-0.0853 0.0368,-0.0368 0.0176,0.0439 0.0154,0.0964 -0.005,0.11661 -0.0202,0.0202 -0.0346,-0.0157 -0.0319,-0.0798 z m -2.06845,-0.12167 c 0.003,-0.0709 0.0173,-0.0853 0.0368,-0.0368 0.0176,0.0439 0.0154,0.0964 -0.005,0.1166 -0.0202,0.0202 -0.0346,-0.0157 -0.0319,-0.0798 z m -10.64645,-0.36503 c 0.003,-0.0709 0.0173,-0.0853 0.0367,-0.0368 0.0176,0.0439 0.0154,0.0964 -0.005,0.1166 -0.0202,0.0202 -0.0346,-0.0157 -0.0319,-0.0798 z m 17.76436,-0.60836 c 0.003,-0.0709 0.0173,-0.0853 0.0368,-0.0368 0.0176,0.0439 0.0154,0.0964 -0.005,0.1166 -0.0202,0.0202 -0.0346,-0.0157 -0.0319,-0.0798 z m -22.80902,-0.69456 c 0,-0.0837 0.0138,-0.11787 0.0307,-0.076 0.0169,0.0418 0.0169,0.11026 0,0.15209 -0.0169,0.0418 -0.0307,0.008 -0.0307,-0.0761 z m 22.81383,-0.73004 c 0,-0.0837 0.0138,-0.11787 0.0307,-0.0761 0.0169,0.0418 0.0169,0.11027 0,0.1521 -0.0169,0.0418 -0.0307,0.008 -0.0307,-0.0761 z m -15.70072,-0.58302 c 0.003,-0.0709 0.0173,-0.0853 0.0368,-0.0368 0.0176,0.0439 0.0154,0.0964 -0.005,0.11661 -0.0202,0.0202 -0.0346,-0.0157 -0.032,-0.0799 z m 5.51995,-2.68289 c 0.0439,-0.0176 0.0964,-0.0154 0.1166,0.005 0.0202,0.0202 -0.0157,0.0346 -0.0798,0.032 -0.0709,-0.003 -0.0853,-0.0173 -0.0368,-0.0368 z m 6.84977,-4.11056 -0.11589,-0.13688 0.13688,0.11589 c 0.0753,0.0637 0.13688,0.12534 0.13688,0.13688 0,0.0487 -0.049,0.0127 -0.15787,-0.11589 z m -9.82192,-0.36502 c 0.25211,-0.26861 0.30673,-0.31691 0.30673,-0.27123 0,0.01 -0.13004,0.13981 -0.28897,0.28898 l -0.28898,0.27122 z m 1.0862,-2.94652 c 0.0439,-0.0176 0.0964,-0.0154 0.11661,0.005 0.0202,0.0202 -0.0157,0.0346 -0.0798,0.032 -0.0709,-0.003 -0.0853,-0.0173 -0.0368,-0.0367 z m 1.33841,0 c 0.0439,-0.0176 0.0964,-0.0154 0.11661,0.005 0.0202,0.0202 -0.0157,0.0346 -0.0798,0.032 -0.0709,-0.003 -0.0853,-0.0173 -0.0368,-0.0367 z"
         id="path1978" /><path
         style="fill:#ffffff;fill-opacity:0.859425;stroke-width:0.0608369"
         d="m 136.70199,147.11943 c 0.003,-0.0709 0.0173,-0.0853 0.0368,-0.0367 0.0176,0.0439 0.0154,0.0964 -0.005,0.1166 -0.0202,0.0202 -0.0346,-0.0157 -0.0319,-0.0798 z m -0.75005,-5.72879 c 1.78175,-0.009 4.69736,-0.009 6.47912,0 1.78176,0.009 0.32396,0.0163 -3.23956,0.0163 -3.56352,0 -5.02132,-0.007 -3.23956,-0.0163 z"
         id="path1976" /><path
         style="fill:#ffffff;fill-opacity:0.859425;stroke-width:0.0608369"
         d="m 143.27981,131.99232 -0.0122,-0.53132 -1.62739,-0.0172 -1.62738,-0.0172 1.62929,-0.0142 c 1.31463,-0.0114 1.63533,0.002 1.66054,0.0673 0.0172,0.0448 0.0218,0.29801 0.0103,0.56274 l -0.0209,0.48131 z m 5.3414,-0.46233 c 0,-0.052 -0.43612,-0.0748 -1.62738,-0.0851 l -1.62739,-0.0142 1.6081,-0.0173 c 1.50322,-0.0162 1.82277,0.0115 1.68825,0.14599 -0.0229,0.0229 -0.0416,0.01 -0.0416,-0.0294 z m -12.8483,-0.11645 c 0.41181,-0.0106 1.06885,-0.0105 1.46009,6e-5 0.39124,0.0106 0.0543,0.0192 -0.74874,0.0192 -0.80305,-4e-5 -1.12315,-0.009 -0.71135,-0.0192 z m 15.69592,0 c 0.4118,-0.0106 1.06884,-0.0105 1.46008,6e-5 0.39124,0.0106 0.0543,0.0192 -0.74874,0.0192 -0.80305,-4e-5 -1.12315,-0.009 -0.71134,-0.0192 z m -8.20135,-3.52575 c -0.0167,-0.80979 -0.009,-1.45126 0.0164,-1.42548 0.0257,0.0258 0.0394,0.68834 0.0303,1.47235 l -0.0164,1.42548 z m 0.0265,-5.0372 c -3e-5,-0.83651 0.009,-1.18715 0.0191,-0.77921 0.0105,0.40794 0.0105,1.09235 6e-5,1.52092 -0.0105,0.42857 -0.0191,0.0948 -0.0191,-0.74171 z"
         id="path1974" /><path
         style="fill:#ffffff;fill-opacity:0.859425;stroke-width:0.0608369"
         d="m 125.73134,131.77856 c 0.44335,-0.0104 1.16883,-0.0104 1.61218,0 0.44335,0.0104 0.0806,0.0189 -0.80609,0.0189 -0.8867,0 -1.24944,-0.009 -0.80609,-0.0189 z m 20.27061,-9.91657 -0.20965,-0.22814 0.22814,0.20966 c 0.12547,0.11531 0.22814,0.21797 0.22814,0.22814 0,0.0464 -0.0515,0.003 -0.24663,-0.20966 z"
         id="path1972" /><path
         style="fill:#ffffff;fill-opacity:0.859425;stroke-width:0.0608369"
         d="m 133.29032,150.09757 c -1.22624,-0.23484 -2.11353,-1.00003 -2.4733,-2.13294 -0.52948,-1.66734 0.49377,-3.39523 2.26037,-3.81693 0.38563,-0.0921 0.9833,-0.0999 6.32704,-0.0832 l 5.90117,0.0184 0.36016,0.13706 c 0.98759,0.37583 1.6337,1.04392 1.95587,2.02244 0.14757,0.44819 0.14757,1.25524 0,1.70343 -0.43422,1.31883 -1.55501,2.15243 -2.89398,2.15243 -1.31351,0 -2.40426,-0.78592 -2.86739,-2.06604 -0.14637,-0.40458 -0.18111,-1.28139 -0.0667,-1.68336 l 0.0649,-0.22814 h -2.64859 -2.6486 l 0.0434,0.13689 c 0.10517,0.33152 0.1067,1.243 0.003,1.60079 -0.37802,1.30036 -1.4487,2.16262 -2.78778,2.24509 -0.20748,0.0128 -0.44568,0.0101 -0.52933,-0.006 z m 0.91317,-2.16698 c 0.34545,-0.23511 0.45566,-0.43743 0.45566,-0.83651 0,-0.39907 -0.11021,-0.60139 -0.45566,-0.8365 -0.27745,-0.18884 -0.7565,-0.18861 -1.04105,4.8e-4 -0.22769,0.15132 -0.48049,0.59117 -0.48049,0.83602 0,0.24486 0.2528,0.68471 0.48049,0.83602 0.28455,0.1891 0.7636,0.18932 1.04105,4.9e-4 z m 11.01061,0.008 c 0.45247,-0.2543 0.61996,-0.86783 0.36115,-1.32296 -0.17954,-0.31574 -0.39429,-0.45227 -0.75892,-0.48251 -0.5982,-0.0496 -1.00086,0.28454 -1.04949,0.87091 -0.0348,0.4194 0.10607,0.71399 0.43588,0.91169 0.31852,0.19093 0.69712,0.19949 1.01138,0.0229 z m -14.16835,-4.7229 c -0.0325,-0.12547 -0.6647,-2.6099 -1.40484,-5.52094 -0.74013,-2.91105 -1.38607,-5.43654 -1.43541,-5.6122 l -0.0897,-0.3194 h -1.58006 -1.58006 v -1.00381 -1.0038 h 2.36978 2.36978 l 0.0607,0.21978 c 0.0334,0.12088 0.19208,0.73679 0.35267,1.36868 l 0.29199,1.14889 1.35846,1.8e-4 1.35845,1.8e-4 -0.0328,-0.1673 c -0.26404,-1.3476 -0.183,-3.24409 0.20343,-4.76054 0.92091,-3.6139 3.6373,-6.60285 7.15052,-7.86801 2.16296,-0.77891 4.60167,-0.88774 6.78332,-0.3027 3.62574,0.9723 6.49729,3.58436 7.79099,7.08696 0.77202,2.09019 0.90028,4.51023 0.35569,6.71116 -0.89297,3.60886 -3.54831,6.5613 -7.11197,7.90771 l -0.51663,0.19519 -0.15948,0.84592 c -0.0877,0.46525 -0.17814,0.94858 -0.20096,1.07405 l -0.0415,0.22814 h -8.11662 -8.11663 z m 14.61789,-1.88594 c 0.076,-0.25567 1.26471,-6.71698 1.24028,-6.74141 -0.0149,-0.0149 -3.61322,-0.0202 -7.9962,-0.0117 l -7.96906,0.0154 0.83138,3.25477 c 0.45726,1.79012 0.85002,3.33006 0.87281,3.42207 l 0.0414,0.16731 h 6.47387 c 6.11298,0 6.47563,-0.006 6.5055,-0.10647 z m 3.61449,-2.97288 c 0.40513,-0.25695 1.10055,-0.76991 1.10458,-0.81476 0.003,-0.038 -0.72744,-0.30367 -0.83524,-0.30365 -0.0427,1e-5 -0.10177,0.0637 -0.13138,0.14159 -0.0296,0.0779 -0.16581,0.36835 -0.30268,0.64552 -0.13687,0.27717 -0.24885,0.5146 -0.24885,0.52762 0,0.0528 0.0825,0.0137 0.41357,-0.19632 z m 2.9185,-2.86746 c 0.38288,-0.59789 0.64037,-1.10936 0.89698,-1.78179 0.21534,-0.56429 0.51623,-1.80007 0.51623,-2.12019 v -0.1915 l -1.44483,0.0163 -1.44483,0.0163 -0.04,0.36502 c -0.022,0.20076 -0.0724,0.66617 -0.11203,1.03423 -0.0396,0.36806 -0.15087,1.06467 -0.24726,1.54802 -0.0964,0.48335 -0.16918,0.88394 -0.16178,0.8902 0.007,0.006 0.2051,0.0806 0.43932,0.16523 0.23422,0.0846 0.6175,0.23742 0.85172,0.33957 0.23422,0.10214 0.43006,0.1867 0.43521,0.1879 0.005,0.001 0.14522,-0.20999 0.31129,-0.46931 z m -14.20112,-3.4677 c -0.0169,-0.25932 -0.0413,-0.50571 -0.0542,-0.54753 -0.018,-0.058 -0.36223,-0.0761 -1.45151,-0.0761 -0.78539,0 -1.44242,0.0233 -1.46006,0.0519 -0.0176,0.0285 -0.005,0.22702 0.0291,0.44107 0.10522,0.66906 -0.0668,0.60211 1.5465,0.60211 h 1.42088 z m 5.32005,-0.0608 -0.0176,-0.53232 -1.6667,-0.0162 -1.66669,-0.0162 0.0389,0.41165 c 0.0214,0.2264 0.0391,0.47324 0.0393,0.54852 l 4.3e-4,0.13689 h 1.64497 1.64496 z m 5.26701,0.42586 c 0.0167,-0.0586 0.0391,-0.2981 0.0497,-0.53232 l 0.0193,-0.42586 -1.6578,-0.0162 -1.65781,-0.0162 v 0.54851 0.54851 h 1.60808 c 1.47936,0 1.61051,-0.009 1.63847,-0.10647 z m -10.62226,-3.3004 c 0.0362,-0.62126 0.21554,-1.96327 0.3536,-2.6463 0.0812,-0.40147 0.14755,-0.76201 0.14755,-0.8012 0,-0.0392 -0.14373,-0.11856 -0.3194,-0.17637 -0.17566,-0.0578 -0.56355,-0.21053 -0.86196,-0.33938 -0.29841,-0.12886 -0.54843,-0.22748 -0.5556,-0.21918 -0.007,0.008 -0.13599,0.20674 -0.28628,0.44096 -0.7371,1.14875 -1.16212,2.29764 -1.41263,3.81861 l -0.0378,0.22922 1.47826,-0.0163 1.47825,-0.0163 z m 5.35397,-1.17111 -0.0163,-1.47529 -0.76046,-0.0687 c -0.41826,-0.0378 -1.04531,-0.1143 -1.39345,-0.17006 -0.34814,-0.0558 -0.6529,-0.0796 -0.67724,-0.053 -0.10994,0.12019 -0.48446,2.49713 -0.48446,3.07465 v 0.16767 h 1.67409 1.6741 z m 5.33214,1.1559 c -0.10825,-1.15643 -0.38028,-2.85446 -0.47199,-2.94616 -0.0129,-0.0129 -0.37621,0.0304 -0.80735,0.0963 -0.43115,0.0658 -1.06451,0.13868 -1.40748,0.16184 l -0.62358,0.0421 v 1.48267 1.48266 h 1.67015 1.67015 z m 4.96342,0.16165 c 0,-0.29214 -0.24264,-1.35148 -0.43331,-1.89175 -0.22421,-0.63533 -0.63492,-1.47163 -1.00263,-2.04161 l -0.26482,-0.41047 -0.35115,0.15756 c -0.19313,0.0867 -0.58385,0.2419 -0.86826,0.34498 -0.28442,0.10308 -0.52462,0.19246 -0.5338,0.19862 -0.009,0.006 0.0375,0.24351 0.1037,0.52745 0.14148,0.60677 0.34291,1.98529 0.40046,2.74064 l 0.0406,0.53232 h 1.45462 1.45463 z m -10.28143,-6.3518 c 0,-0.83651 -0.0156,-1.52092 -0.0347,-1.52092 -0.0191,0 -0.15179,0.0806 -0.29494,0.17907 -0.33912,0.23332 -0.80831,0.75004 -1.14868,1.26504 -0.30282,0.45817 -0.73483,1.29084 -0.69197,1.3337 0.0576,0.0576 1.3451,0.22559 1.94212,0.2534 l 0.22814,0.0106 z m 3.40686,1.3943 c 0.25095,-0.0335 0.53266,-0.0759 0.62601,-0.0942 l 0.16973,-0.0332 -0.34213,-0.64642 c -0.4191,-0.79183 -1.02152,-1.57597 -1.45908,-1.89922 -0.18026,-0.13317 -0.3426,-0.24212 -0.36076,-0.24212 -0.0182,0 -0.033,0.68763 -0.033,1.52807 v 1.52807 l 0.47149,-0.04 c 0.25932,-0.022 0.67681,-0.0674 0.92776,-0.10094 z m -7.27809,-1.34939 c 0.36392,-0.77451 0.36987,-0.76133 -0.18491,-0.4095 -0.3384,0.21461 -1.05064,0.74988 -1.05265,0.7911 -0.001,0.0281 0.86627,0.36034 0.89118,0.34122 0.006,-0.004 0.16167,-0.32972 0.34638,-0.72282 z m 10.92791,0.40153 c 0.0165,-0.0165 -0.0656,-0.11071 -0.18251,-0.20943 -0.25624,-0.2164 -1.29352,-0.91015 -1.3205,-0.88318 -0.0105,0.0105 0.13043,0.33746 0.31323,0.72651 l 0.33238,0.70737 0.41369,-0.15566 c 0.22752,-0.0856 0.4272,-0.16914 0.44371,-0.18561 z"
         id="path1970" /></g></g></svg>
